<svg xmlns="http://www.w3.org/2000/svg" width="360" height="360" viewBox="0 0 360 360">
  <g fill="#a9823f">
    <path opacity="0.11" transform="translate(40 52) scale(0.10)" d="M332.09,131.84c14.24,128.65,4.25,287.21-130.92,432.79-1.03,1.11.36,2.78,1.64,1.96l74.04-47.03c14.74-9.37,33.56-9.37,48.3,0l153,97.2c3.9,2.48,8.67-1.51,6.91-5.78-16.11-39.14-59.24-150.85-50.2-204.03,8.97-52.75,117.29-114.13,158.07-135.53,4.24-2.22,2.86-8.61-1.92-8.91,0,0-138.69,21.33-199.71-33.2-40.31-36.02-56.73-98.02-56.73-98.02-.23-.57-.72-.83-1.21-.83-.69,0-1.38.51-1.28,1.37M73.51,158.26c0,37.88,30.71,68.59,68.59,68.59s68.59-30.71,68.59-68.59-30.71-68.59-68.59-68.59-68.59,30.71-68.59,68.59M391.31,158.26c0,37.88,30.71,68.59,68.59,68.59s68.59-30.71,68.59-68.59-30.71-68.59-68.59-68.59-68.59,30.71-68.59,68.59M245.16,6.94c8.96,46.85,32.2,209.3-67.99,244.61-63.41,22.35-167.72,11.06-167.72,11.06-2.77.17-4.41,2.41-4.44,4.69v.13c.02,1.52.76,3.05,2.35,3.99,39.89,23.27,153.71,93.11,159.78,135.53,5.48,38.29-41.18,157.72-58.8,207.41-1.73,4.9,4.57,8.58,8.02,4.69C378.8,323.29,279.67,59.85,249.24,5.46c-.44-.79-1.17-1.14-1.89-1.14-1.25,0-2.49,1.05-2.19,2.61"/>
    <path opacity="0.055" transform="translate(248 104) scale(0.14) rotate(16 268 312)" d="M332.09,131.84c14.24,128.65,4.25,287.21-130.92,432.79-1.03,1.11.36,2.78,1.64,1.96l74.04-47.03c14.74-9.37,33.56-9.37,48.3,0l153,97.2c3.9,2.48,8.67-1.51,6.91-5.78-16.11-39.14-59.24-150.85-50.2-204.03,8.97-52.75,117.29-114.13,158.07-135.53,4.24-2.22,2.86-8.61-1.92-8.91,0,0-138.69,21.33-199.71-33.2-40.31-36.02-56.73-98.02-56.73-98.02-.23-.57-.72-.83-1.21-.83-.69,0-1.38.51-1.28,1.37M73.51,158.26c0,37.88,30.71,68.59,68.59,68.59s68.59-30.71,68.59-68.59-30.71-68.59-68.59-68.59-68.59,30.71-68.59,68.59M391.31,158.26c0,37.88,30.71,68.59,68.59,68.59s68.59-30.71,68.59-68.59-30.71-68.59-68.59-68.59-68.59,30.71-68.59,68.59M245.16,6.94c8.96,46.85,32.2,209.3-67.99,244.61-63.41,22.35-167.72,11.06-167.72,11.06-2.77.17-4.41,2.41-4.44,4.69v.13c.02,1.52.76,3.05,2.35,3.99,39.89,23.27,153.71,93.11,159.78,135.53,5.48,38.29-41.18,157.72-58.8,207.41-1.73,4.9,4.57,8.58,8.02,4.69C378.8,323.29,279.67,59.85,249.24,5.46c-.44-.79-1.17-1.14-1.89-1.14-1.25,0-2.49,1.05-2.19,2.61"/>
    <path opacity="0.085" transform="translate(150 224) scale(0.072) rotate(-12 268 312)" d="M332.09,131.84c14.24,128.65,4.25,287.21-130.92,432.79-1.03,1.11.36,2.78,1.64,1.96l74.04-47.03c14.74-9.37,33.56-9.37,48.3,0l153,97.2c3.9,2.48,8.67-1.51,6.91-5.78-16.11-39.14-59.24-150.85-50.2-204.03,8.97-52.75,117.29-114.13,158.07-135.53,4.24-2.22,2.86-8.61-1.92-8.91,0,0-138.69,21.33-199.71-33.2-40.31-36.02-56.73-98.02-56.73-98.02-.23-.57-.72-.83-1.21-.83-.69,0-1.38.51-1.28,1.37M73.51,158.26c0,37.88,30.71,68.59,68.59,68.59s68.59-30.71,68.59-68.59-30.71-68.59-68.59-68.59-68.59,30.71-68.59,68.59M391.31,158.26c0,37.88,30.71,68.59,68.59,68.59s68.59-30.71,68.59-68.59-30.71-68.59-68.59-68.59-68.59,30.71-68.59,68.59M245.16,6.94c8.96,46.85,32.2,209.3-67.99,244.61-63.41,22.35-167.72,11.06-167.72,11.06-2.77.17-4.41,2.41-4.44,4.69v.13c.02,1.52.76,3.05,2.35,3.99,39.89,23.27,153.71,93.11,159.78,135.53,5.48,38.29-41.18,157.72-58.8,207.41-1.73,4.9,4.57,8.58,8.02,4.69C378.8,323.29,279.67,59.85,249.24,5.46c-.44-.79-1.17-1.14-1.89-1.14-1.25,0-2.49,1.05-2.19,2.61"/>
    <path opacity="0.05" transform="translate(296 286) scale(0.105) rotate(10 268 312)" d="M332.09,131.84c14.24,128.65,4.25,287.21-130.92,432.79-1.03,1.11.36,2.78,1.64,1.96l74.04-47.03c14.74-9.37,33.56-9.37,48.3,0l153,97.2c3.9,2.48,8.67-1.51,6.91-5.78-16.11-39.14-59.24-150.85-50.2-204.03,8.97-52.75,117.29-114.13,158.07-135.53,4.24-2.22,2.86-8.61-1.92-8.91,0,0-138.69,21.33-199.71-33.2-40.31-36.02-56.73-98.02-56.73-98.02-.23-.57-.72-.83-1.21-.83-.69,0-1.38.51-1.28,1.37M73.51,158.26c0,37.88,30.71,68.59,68.59,68.59s68.59-30.71,68.59-68.59-30.71-68.59-68.59-68.59-68.59,30.71-68.59,68.59M391.31,158.26c0,37.88,30.71,68.59,68.59,68.59s68.59-30.71,68.59-68.59-30.71-68.59-68.59-68.59-68.59,30.71-68.59,68.59M245.16,6.94c8.96,46.85,32.2,209.3-67.99,244.61-63.41,22.35-167.72,11.06-167.72,11.06-2.77.17-4.41,2.41-4.44,4.69v.13c.02,1.52.76,3.05,2.35,3.99,39.89,23.27,153.71,93.11,159.78,135.53,5.48,38.29-41.18,157.72-58.8,207.41-1.73,4.9,4.57,8.58,8.02,4.69C378.8,323.29,279.67,59.85,249.24,5.46c-.44-.79-1.17-1.14-1.89-1.14-1.25,0-2.49,1.05-2.19,2.61"/>
    <path opacity="0.07" transform="translate(14 290) scale(0.085) rotate(-18 268 312)" d="M332.09,131.84c14.24,128.65,4.25,287.21-130.92,432.79-1.03,1.11.36,2.78,1.64,1.96l74.04-47.03c14.74-9.37,33.56-9.37,48.3,0l153,97.2c3.9,2.48,8.67-1.51,6.91-5.78-16.11-39.14-59.24-150.85-50.2-204.03,8.97-52.75,117.29-114.13,158.07-135.53,4.24-2.22,2.86-8.61-1.92-8.91,0,0-138.69,21.33-199.71-33.2-40.31-36.02-56.73-98.02-56.73-98.02-.23-.57-.72-.83-1.21-.83-.69,0-1.38.51-1.28,1.37M73.51,158.26c0,37.88,30.71,68.59,68.59,68.59s68.59-30.71,68.59-68.59-30.71-68.59-68.59-68.59-68.59,30.71-68.59,68.59M391.31,158.26c0,37.88,30.71,68.59,68.59,68.59s68.59-30.71,68.59-68.59-30.71-68.59-68.59-68.59-68.59,30.71-68.59,68.59M245.16,6.94c8.96,46.85,32.2,209.3-67.99,244.61-63.41,22.35-167.72,11.06-167.72,11.06-2.77.17-4.41,2.41-4.44,4.69v.13c.02,1.52.76,3.05,2.35,3.99,39.89,23.27,153.71,93.11,159.78,135.53,5.48,38.29-41.18,157.72-58.8,207.41-1.73,4.9,4.57,8.58,8.02,4.69C378.8,323.29,279.67,59.85,249.24,5.46c-.44-.79-1.17-1.14-1.89-1.14-1.25,0-2.49,1.05-2.19,2.61"/>
  </g>
</svg>
