<?xml version="1.0" encoding="UTF-8"?><svg id="a" xmlns="http://www.w3.org/2000/svg" width="1800" height="625" viewBox="0 0 1800 625"><defs><style>.b,.c{fill:#fff;}.c{stroke-width:0px;}</style></defs><path class="c" d="M690.68,252.62c-8.81,0-16.39-1.32-22.73-3.94-6.34-2.63-11.37-6.46-15.08-11.48-3.71-5.02-6-11.05-6.85-18.09-.85-7.03-.12-14.96,2.2-23.77l32.94-4.41c-.93,5.88-1.32,11.56-1.16,17.05.15,5.49,1.08,9.97,2.78,13.45,1.7,3.48,4.48,5.22,8.35,5.22,1.86,0,3.44-.46,4.76-1.39,1.31-.93,2.32-2.32,3.01-4.17.7-1.86,1.04-4.25,1.04-7.19,0-5.72-1.2-10.63-3.59-14.73-2.4-4.09-5.45-7.69-9.16-10.78-3.71-3.09-7.5-5.95-11.36-8.58-3.41-2.47-6.88-5.14-10.44-8-3.56-2.86-6.81-6.1-9.74-9.74-2.94-3.63-5.3-7.77-7.08-12.41-1.78-4.64-2.67-9.98-2.67-16.01,0-7.89,1.7-14.8,5.1-20.76,3.4-5.95,8.39-10.59,14.96-13.91,6.57-3.33,14.5-4.99,23.77-4.99,10.51,0,19.14,2.08,25.86,6.26,6.73,4.17,11.52,10.17,14.38,17.98,2.86,7.81,3.67,17.13,2.44,27.95l-32.24,4.18c.46-3.71.65-7.31.58-10.78-.08-3.48-.5-6.61-1.28-9.4-.77-2.78-1.97-4.99-3.59-6.61-1.63-1.62-3.68-2.44-6.15-2.44-1.7,0-3.21.47-4.52,1.39-1.32.93-2.32,2.2-3.02,3.83-.69,1.62-1.04,3.59-1.04,5.91,0,3.87.93,7.23,2.78,10.09,1.86,2.86,4.29,5.41,7.31,7.65,3.01,2.24,6.15,4.45,9.4,6.61,4.48,2.94,8.81,6.07,12.99,9.39,4.17,3.33,7.92,7.08,11.25,11.25,3.32,4.17,5.95,8.97,7.89,14.38,1.93,5.42,2.9,11.68,2.9,18.79,0,8.04-1.51,15.27-4.52,21.69-3.01,6.42-7.81,11.45-14.38,15.08-6.58,3.63-15.27,5.45-26.09,5.45"/><polygon class="c" points="821.49 96.75 797.14 96.75 761.42 96.75 736.83 96.75 736.83 125.75 761.42 125.75 761.42 249.84 797.14 249.84 797.14 125.75 821.49 125.75 821.49 96.75"/><path class="c" d="M868.58,225.25c2.16,0,4.02-.96,5.57-2.9,1.54-1.93,2.74-4.95,3.6-9.04.85-4.1,1.47-9.36,1.85-15.77.39-6.42.58-14.03.58-22.85,0-11.44-.35-21.1-1.04-28.99-.69-7.89-1.86-13.87-3.48-17.98-1.62-4.09-3.98-6.14-7.07-6.14-2.01,0-3.71,1-5.1,3.01-1.39,2.01-2.51,5.18-3.36,9.51-.85,4.33-1.47,9.86-1.86,16.58-.39,6.73-.58,14.81-.58,24.24s.19,17.39.58,23.89c.39,6.5,1,11.68,1.86,15.54.85,3.86,1.97,6.65,3.36,8.35,1.39,1.7,3.09,2.55,5.1,2.55M867.88,252.62c-8.5,0-15.74-1.63-21.69-4.87-5.95-3.25-10.75-8.16-14.38-14.73-3.63-6.57-6.26-14.76-7.89-24.59-1.62-9.82-2.44-21.3-2.44-34.45,0-18.4,1.51-33.47,4.52-45.23,3.01-11.75,8-20.49,14.96-26.21,6.96-5.72,16.16-8.58,27.6-8.58,8.66,0,16,1.59,22.03,4.75,6.03,3.17,10.94,7.96,14.73,14.38,3.78,6.42,6.57,14.62,8.35,24.59,1.77,9.97,2.67,21.69,2.67,35.14s-.9,25.17-2.67,35.14c-1.78,9.97-4.6,18.25-8.47,24.82-3.87,6.57-8.85,11.52-14.96,14.84-6.11,3.32-13.57,4.99-22.39,4.99"/><path class="c" d="M972.26,252.62c-9.59,0-17.55-1.78-23.89-5.34-6.34-3.55-11.29-8.69-14.84-15.42-3.56-6.73-6.07-14.96-7.54-24.7-1.47-9.74-2.2-20.88-2.2-33.4,0-11.44.65-22.04,1.97-31.78,1.31-9.74,3.67-18.17,7.07-25.28,3.4-7.11,8.27-12.64,14.62-16.58,6.34-3.94,14.46-5.91,24.35-5.91s17.13,1.7,23.08,5.1c5.95,3.4,10.4,7.97,13.34,13.69,2.93,5.72,4.64,12.22,5.1,19.48.46,7.27,0,14.77-1.39,22.5l-33.4,3.72c.93-7.73,1.24-14.38.93-19.95-.31-5.57-1.24-9.82-2.78-12.76-1.55-2.94-3.71-4.41-6.5-4.41-2.17,0-3.94,1-5.33,3.01-1.39,2.01-2.44,5.03-3.13,9.04-.69,4.02-1.2,9.05-1.51,15.08-.31,6.03-.46,12.99-.46,20.88,0,14.07.39,25.21,1.16,33.4.77,8.2,2.01,14,3.71,17.4,1.7,3.4,3.86,5.1,6.5,5.1,3.55,0,6.07-2.28,7.54-6.84,1.47-4.56,2.24-10.44,2.32-17.63.08-7.19-.35-14.65-1.27-22.38l34.33,4.4c1.85,11.76,2.32,22,1.39,30.73-.93,8.74-3.21,15.97-6.85,21.69-3.63,5.72-8.5,10.01-14.61,12.87-6.11,2.86-13.34,4.29-21.69,4.29"/><path class="c" d="M1023.06,249.84V96.75h35.72v69.12c2.63-3.86,4.91-8,6.84-12.41,1.94-4.41,3.6-9.35,4.99-14.84,1.39-5.49,2.55-11.68,3.48-18.56.93-6.88,1.7-14.65,2.32-23.31h39.67c-.46,8.66-1.59,16.93-3.36,24.82-1.78,7.89-4.33,15.15-7.65,21.8-3.33,6.65-7.42,12.56-12.3,17.74-4.87,5.18-10.63,9.47-17.28,12.87v1.62c4.95.16,9.51.7,13.68,1.63,4.18.93,7.85,2.51,11.02,4.76,3.17,2.24,5.76,5.53,7.77,9.86,2.01,4.33,3.32,9.97,3.94,16.93l4.18,41.05h-37.11l-2.09-28.07c-.62-8.82-1.47-15.62-2.55-20.41-1.08-4.79-2.71-8.12-4.87-9.97-2.17-1.85-5.1-2.78-8.81-2.78h-1.86v61.23h-35.72Z"/><path class="c" d="M1211.28,127.49c-3.01-7.19-7-13.03-11.95-17.51-4.95-4.48-10.21-7.81-15.77-9.97-5.57-2.17-10.9-3.25-16-3.25h-43.84v153.09h35.72v-40.36h.7c10.98,0,20.64-2.12,28.99-6.38,8.35-4.25,14.88-10.55,19.6-18.9,4.72-8.35,7.07-18.63,7.07-30.85,0-10.05-1.5-18.67-4.52-25.86ZM1177.19,165.87c-.7,3.71-1.67,6.58-2.9,8.58-1.24,2.01-2.55,3.48-3.94,4.41-1.4.93-2.83,1.47-4.29,1.63-1.47.15-2.83.23-4.06.23h-2.55v-55.44h3.48c.77,0,1.77.08,3.01.23,1.23.15,2.55.66,3.95,1.51,1.39.85,2.74,2.2,4.05,4.06,1.31,1.85,2.36,4.45,3.13,7.77.77,3.33,1.16,7.62,1.16,12.87,0,5.73-.35,10.44-1.04,14.15Z"/><path class="c" d="M1268.22,225.25c2.16,0,4.02-.96,5.57-2.9,1.54-1.93,2.74-4.95,3.6-9.04.85-4.1,1.47-9.36,1.85-15.77.39-6.42.58-14.03.58-22.85,0-11.44-.35-21.1-1.04-28.99-.69-7.89-1.86-13.87-3.48-17.98-1.63-4.09-3.98-6.14-7.08-6.14-2.01,0-3.71,1-5.1,3.01-1.39,2.01-2.52,5.18-3.36,9.51-.85,4.33-1.47,9.86-1.86,16.58-.39,6.73-.58,14.81-.58,24.24s.19,17.39.58,23.89c.39,6.5,1,11.68,1.86,15.54.85,3.86,1.97,6.65,3.36,8.35,1.39,1.7,3.09,2.55,5.1,2.55M1267.53,252.62c-8.5,0-15.74-1.63-21.69-4.87-5.95-3.25-10.75-8.16-14.38-14.73-3.63-6.57-6.26-14.76-7.89-24.59-1.62-9.82-2.44-21.3-2.44-34.45,0-18.4,1.51-33.47,4.52-45.23,3.02-11.75,8-20.49,14.96-26.21,6.96-5.72,16.16-8.58,27.6-8.58,8.66,0,16,1.59,22.04,4.75,6.03,3.17,10.94,7.96,14.73,14.38,3.78,6.42,6.57,14.62,8.35,24.59,1.77,9.97,2.67,21.69,2.67,35.14s-.9,25.17-2.67,35.14c-1.78,9.97-4.6,18.25-8.47,24.82-3.87,6.57-8.85,11.52-14.96,14.84-6.11,3.32-13.57,4.99-22.39,4.99"/><path class="c" d="M1360.07,173.29h2.09c1.08,0,2.32-.07,3.71-.23,1.39-.15,2.82-.62,4.29-1.39,1.47-.77,2.82-2.05,4.06-3.83,1.24-1.78,2.24-4.29,3.02-7.54.77-3.24,1.16-7.42,1.16-12.52,0-4.49-.31-8.16-.93-11.02-.62-2.86-1.47-5.06-2.55-6.61-1.09-1.54-2.28-2.67-3.6-3.36-1.31-.69-2.67-1.12-4.06-1.27-1.39-.15-2.71-.23-3.95-.23h-3.24v48.01ZM1324.35,249.84V96.75h42.21c5.26,0,10.28.58,15.08,1.74,4.79,1.16,9.17,2.98,13.11,5.45,3.94,2.47,7.38,5.49,10.32,9.05,2.94,3.56,5.22,7.77,6.85,12.64,1.62,4.87,2.43,10.4,2.43,16.59,0,5.1-.62,9.9-1.86,14.38-1.24,4.49-3.21,8.46-5.91,11.94-2.71,3.48-6.07,6.42-10.09,8.82-4.02,2.4-8.81,4.06-14.38,4.99v2.09c8.2.31,14.38,2.01,18.55,5.1,4.18,3.09,7.12,7.23,8.82,12.41,1.7,5.18,2.94,11.17,3.71,17.98l3.95,29.92h-37.11l-2.09-24.59c-.46-5.26-1.09-10.01-1.86-14.26-.78-4.25-2.2-7.62-4.29-10.09-2.09-2.47-5.45-3.78-10.09-3.94h-1.62v52.88h-35.72Z"/><polygon class="c" points="1500.87 96.75 1476.51 96.75 1440.79 96.75 1416.21 96.75 1416.21 125.75 1440.79 125.75 1440.79 249.84 1476.51 249.84 1476.51 125.75 1500.87 125.75 1500.87 96.75"/><path class="c" d="M682.79,355.74h2.09c1.08,0,2.32-.07,3.71-.23,1.39-.15,2.82-.62,4.29-1.39,1.47-.77,2.82-2.05,4.06-3.83,1.24-1.78,2.24-4.29,3.01-7.54.77-3.24,1.16-7.42,1.16-12.52,0-4.49-.31-8.16-.93-11.02-.62-2.86-1.47-5.06-2.55-6.61-1.09-1.54-2.28-2.67-3.6-3.36-1.31-.69-2.67-1.12-4.06-1.27-1.39-.15-2.71-.23-3.94-.23h-3.25v48.01ZM647.07,432.29v-153.09h42.21c5.26,0,10.28.58,15.08,1.74,4.79,1.16,9.16,2.98,13.1,5.45,3.94,2.47,7.38,5.49,10.32,9.05,2.94,3.56,5.22,7.77,6.84,12.64,1.63,4.87,2.44,10.4,2.44,16.58,0,5.1-.62,9.9-1.86,14.38-1.24,4.49-3.21,8.46-5.91,11.94-2.71,3.48-6.07,6.42-10.09,8.82-4.02,2.4-8.81,4.06-14.38,4.99v2.09c8.2.31,14.38,2.01,18.56,5.1,4.18,3.09,7.11,7.23,8.81,12.41,1.7,5.18,2.94,11.17,3.71,17.98l3.94,29.92h-37.11l-2.09-24.59c-.46-5.26-1.08-10.01-1.86-14.26-.78-4.25-2.2-7.62-4.29-10.09-2.09-2.47-5.45-3.78-10.09-3.94h-1.62v52.88h-35.72Z"/><path class="c" d="M807.8,432.29h37.11l-25.28-153.09h-50.56l-25.51,153.09h37.34l2.4-25.52h21.83l2.68,25.52ZM785.47,383.58l7.26-77.24h1.86l8.11,77.24h-17.22Z"/><path class="c" d="M892.47,435.07c-9.59,0-17.55-1.78-23.89-5.34-6.34-3.55-11.29-8.69-14.84-15.42-3.56-6.73-6.07-14.96-7.54-24.7-1.47-9.74-2.2-20.88-2.2-33.4,0-11.44.66-22.04,1.97-31.78,1.31-9.74,3.67-18.17,7.07-25.28,3.4-7.11,8.27-12.64,14.62-16.58,6.34-3.94,14.45-5.91,24.35-5.91s17.13,1.7,23.08,5.1c5.95,3.4,10.4,7.97,13.34,13.69,2.93,5.72,4.64,12.22,5.1,19.48.46,7.27,0,14.77-1.39,22.5l-33.4,3.72c.93-7.73,1.24-14.38.93-19.95-.31-5.57-1.24-9.82-2.78-12.76-1.55-2.94-3.71-4.41-6.5-4.41-2.17,0-3.94,1-5.33,3.01-1.39,2.01-2.44,5.03-3.13,9.04-.69,4.02-1.2,9.05-1.51,15.08-.31,6.03-.46,12.99-.46,20.88,0,14.07.39,25.21,1.16,33.4.77,8.2,2.01,14,3.71,17.4,1.7,3.4,3.86,5.1,6.5,5.1,3.55,0,6.07-2.28,7.54-6.84,1.47-4.56,2.24-10.44,2.32-17.63.08-7.19-.35-14.65-1.27-22.38l34.33,4.4c1.85,11.76,2.32,22,1.39,30.73-.93,8.74-3.21,15.97-6.85,21.69-3.63,5.72-8.5,10.01-14.61,12.87-6.11,2.86-13.34,4.29-21.69,4.29"/><polygon class="c" points="1010.99 308.42 1010.99 279.2 979.21 279.2 968.78 279.2 943.26 279.2 943.26 432.29 968.78 432.29 979.21 432.29 1010.99 432.29 1010.99 403.06 979.21 403.06 979.21 367.8 1004.96 367.8 1004.96 341.13 979.21 341.13 979.21 308.42 1010.99 308.42"/><path class="c" d="M1097.45,313.59c0,4.69.94,11.02,2.81,18.06,7.27-3.29,9.39-9.62,9.39-18.77,0-8.68-2.11-12.2-6.1-12.2-4.22,0-6.1,3.75-6.1,12.9M1092.29,406.01c3.52,0,6.8-.93,9.85-3.28-6.8-9.85-13.84-21.82-20.64-37.3h-.23c-2.11,2.58-3.99,7.98-3.99,15.48,0,17.13,5.86,25.1,15.01,25.1M1153.75,404.61l-.23,27.91c-.94.47-3.75,1.17-7.04,1.17-9.38,0-18.29-2.58-27.44-10.55-8.68,7.27-18.3,11.02-29.09,11.02-29.56,0-43.16-19-43.16-51.84,0-19.24,7.27-35.42,25.33-41.52-3.99-11.73-6.34-21.82-6.34-29.32,0-20.41,10.79-35.42,35.42-35.42,22.75,0,34.02,12.43,34.02,34.25s-10.55,36.12-28.38,39.18l-.23.23c3.28,7.74,7.98,17.13,12.67,25.1,3.28-8.92,5.86-19.47,7.27-29.56h26.51c-3.28,17.83-8.91,37.53-16.42,53.72,5.16,4.69,8.91,5.86,13.13,5.86.94,0,2.35,0,3.99-.23"/><path class="c" d="M1234.62,435.07c-9.59,0-17.55-1.78-23.89-5.34-6.34-3.55-11.29-8.69-14.84-15.42-3.56-6.73-6.07-14.96-7.54-24.7-1.47-9.74-2.2-20.88-2.2-33.4,0-11.44.66-22.04,1.97-31.78,1.31-9.74,3.67-18.17,7.07-25.28,3.4-7.11,8.27-12.64,14.61-16.58,6.34-3.94,14.46-5.91,24.36-5.91s17.13,1.7,23.08,5.1c5.95,3.4,10.4,7.97,13.34,13.69,2.94,5.72,4.64,12.22,5.1,19.48.46,7.27,0,14.77-1.39,22.5l-33.4,3.72c.93-7.73,1.24-14.38.93-19.95-.31-5.57-1.24-9.82-2.78-12.76-1.55-2.94-3.72-4.41-6.5-4.41-2.17,0-3.94,1-5.33,3.01-1.39,2.01-2.44,5.03-3.13,9.04-.69,4.02-1.2,9.05-1.51,15.08-.31,6.03-.46,12.99-.46,20.88,0,14.07.39,25.21,1.16,33.4.77,8.2,2.01,14,3.72,17.4,1.7,3.4,3.86,5.1,6.49,5.1,3.55,0,6.07-2.28,7.54-6.84,1.47-4.56,2.24-10.44,2.32-17.63.08-7.19-.35-14.65-1.27-22.38l34.33,4.4c1.85,11.76,2.32,22,1.39,30.73-.92,8.74-3.21,15.97-6.84,21.69-3.63,5.72-8.5,10.01-14.61,12.87-6.11,2.86-13.34,4.29-21.69,4.29"/><path class="c" d="M1330.19,435.07c-8.97,0-16.28-1.47-21.92-4.41-5.65-2.94-10.05-6.69-13.22-11.25-3.17-4.56-5.45-9.39-6.84-14.5-1.39-5.1-2.24-9.78-2.55-14.03-.31-4.25-.46-7.54-.46-9.86v-101.83h35.72v98.58c0,6.49.35,11.64,1.04,15.42.69,3.79,1.74,6.49,3.13,8.12,1.39,1.62,3.09,2.44,5.1,2.44,2.16,0,3.94-.77,5.33-2.32,1.4-1.54,2.44-4.21,3.13-8s1.05-9.01,1.05-15.66v-98.58h35.72v101.83c0,9.43-1.04,17.55-3.13,24.35-2.09,6.81-5.1,12.41-9.05,16.82-3.94,4.41-8.7,7.65-14.26,9.74-5.57,2.09-11.83,3.13-18.79,3.13"/><polygon class="c" points="1420.64 402.13 1420.64 279.2 1384.46 279.2 1384.46 432.29 1390.49 432.29 1420.64 432.29 1455.67 432.29 1455.67 402.13 1420.64 402.13"/><polygon class="c" points="1522.93 279.2 1498.57 279.2 1462.85 279.2 1438.27 279.2 1438.27 308.19 1462.85 308.19 1462.85 432.29 1498.57 432.29 1498.57 308.19 1522.93 308.19 1522.93 279.2"/><path class="c" d="M1573.49,435.07c-8.97,0-16.28-1.47-21.92-4.41-5.65-2.94-10.05-6.69-13.22-11.25-3.17-4.56-5.45-9.39-6.84-14.5-1.39-5.1-2.24-9.78-2.55-14.03-.31-4.25-.46-7.54-.46-9.86v-101.83h35.72v98.58c0,6.49.35,11.64,1.04,15.42.69,3.79,1.74,6.49,3.13,8.12,1.4,1.62,3.09,2.44,5.1,2.44,2.16,0,3.94-.77,5.33-2.32,1.4-1.54,2.44-4.21,3.13-8,.7-3.79,1.05-9.01,1.05-15.66v-98.58h35.72v101.83c0,9.43-1.04,17.55-3.13,24.35-2.09,6.81-5.1,12.41-9.05,16.82-3.94,4.41-8.69,7.65-14.26,9.74-5.57,2.09-11.83,3.13-18.79,3.13"/><path class="c" d="M1663.49,355.74h2.09c1.08,0,2.32-.07,3.71-.23,1.39-.15,2.82-.62,4.29-1.39,1.47-.77,2.82-2.05,4.06-3.83,1.24-1.78,2.24-4.29,3.02-7.54.77-3.24,1.16-7.42,1.16-12.52,0-4.49-.31-8.16-.93-11.02-.62-2.86-1.47-5.06-2.55-6.61-1.09-1.54-2.28-2.67-3.6-3.36-1.31-.69-2.67-1.12-4.06-1.27-1.39-.15-2.71-.23-3.95-.23h-3.24v48.01ZM1627.77,432.29v-153.09h42.21c5.26,0,10.28.58,15.08,1.74,4.79,1.16,9.17,2.98,13.11,5.45,3.94,2.47,7.38,5.49,10.32,9.05,2.94,3.56,5.22,7.77,6.84,12.64,1.63,4.87,2.44,10.4,2.44,16.58,0,5.1-.62,9.9-1.86,14.38-1.24,4.49-3.21,8.46-5.91,11.94-2.71,3.48-6.07,6.42-10.09,8.82-4.02,2.4-8.81,4.06-14.38,4.99v2.09c8.2.31,14.38,2.01,18.55,5.1,4.18,3.09,7.12,7.23,8.82,12.41,1.7,5.18,2.94,11.17,3.71,17.98l3.95,29.92h-37.11l-2.09-24.59c-.46-5.26-1.09-10.01-1.86-14.26-.78-4.25-2.2-7.62-4.29-10.09-2.09-2.47-5.45-3.78-10.09-3.94h-1.62v52.88h-35.72Z"/><polygon class="c" points="1752.78 279.2 1727.27 279.2 1727.27 432.28 1763.22 432.28 1795 432.28 1795 403.06 1763.22 403.06 1763.22 367.8 1788.97 367.8 1788.97 341.13 1763.22 341.13 1763.22 308.42 1795 308.42 1795 279.2 1752.78 279.2"/><path class="c" d="M718.97,461.65h-50.56l-25.51,153.09h37.34l2.4-25.51h21.83l2.68,25.51h37.11l-25.28-153.09ZM684.81,566.03l7.26-77.24h1.86l8.11,77.24h-17.22Z"/><polygon class="c" points="754.23 614.74 732.89 461.65 772.09 461.65 780.21 583.42 781.6 583.42 789.49 461.65 830.54 461.65 839.12 583.42 840.28 583.42 848.4 461.65 885.28 461.65 863.25 614.74 817.09 614.74 809.67 492.27 808.97 492.27 800.85 614.74 754.23 614.74"/><path class="c" d="M937.7,614.74h37.11l-25.28-153.09h-50.57l-25.51,153.09h37.34l2.4-25.51h21.83l2.68,25.51ZM915.37,566.03l7.26-77.24h1.86l8.11,77.24h-17.22Z"/><path class="c" d="M1015.64,538.19h2.09c1.08,0,2.32-.07,3.71-.23,1.39-.15,2.82-.62,4.29-1.39,1.47-.77,2.82-2.05,4.06-3.83,1.24-1.78,2.24-4.29,3.02-7.54.77-3.24,1.16-7.42,1.16-12.52,0-4.49-.31-8.16-.93-11.02-.62-2.86-1.47-5.06-2.55-6.61-1.09-1.54-2.28-2.67-3.6-3.36-1.31-.69-2.67-1.12-4.06-1.27-1.39-.15-2.71-.23-3.94-.23h-3.25v48.01ZM979.92,614.74v-153.09h42.21c5.26,0,10.28.58,15.08,1.74,4.79,1.16,9.16,2.98,13.1,5.45,3.94,2.47,7.38,5.49,10.32,9.05,2.94,3.56,5.22,7.77,6.84,12.64,1.63,4.87,2.44,10.4,2.44,16.59,0,5.1-.62,9.9-1.85,14.38-1.24,4.49-3.21,8.46-5.92,11.94-2.71,3.48-6.07,6.42-10.09,8.82-4.02,2.4-8.81,4.06-14.38,4.99v2.09c8.19.31,14.38,2.01,18.55,5.1,4.18,3.09,7.11,7.23,8.82,12.41,1.7,5.18,2.94,11.17,3.71,17.98l3.94,29.92h-37.11l-2.09-24.59c-.46-5.26-1.08-10.01-1.86-14.26-.78-4.25-2.2-7.62-4.29-10.09-2.09-2.47-5.45-3.78-10.09-3.94h-1.62v52.88h-35.72Z"/><path class="c" d="M1164.43,496.67c-4.41-11.44-10.67-20.14-18.79-26.09-8.12-5.95-17.83-8.93-29.11-8.93h-37.11v153.09h40.59c3.4,0,7.31-.5,11.71-1.51,4.41-1,8.89-2.98,13.45-5.91,4.56-2.94,8.82-7.23,12.76-12.87,3.94-5.64,7.11-13.03,9.51-22.15,2.39-9.12,3.59-20.41,3.59-33.87,0-16.39-2.21-30.3-6.61-41.75ZM1134.16,562.43c-.77,6.26-1.89,11.13-3.36,14.61-1.47,3.48-3.25,5.88-5.33,7.19-2.09,1.32-4.37,1.97-6.85,1.97h-3.48v-96.03h2.78c2.63,0,5.02.62,7.19,1.86,2.17,1.24,4.02,3.56,5.57,6.96,1.55,3.4,2.71,8.23,3.48,14.5.77,6.26,1.16,14.5,1.16,24.7s-.39,17.98-1.16,24.24Z"/><path class="c" d="M1219.75,617.52c-8.81,0-16.39-1.31-22.73-3.94-6.34-2.63-11.36-6.46-15.07-11.48-3.71-5.02-6-11.05-6.85-18.09-.85-7.04-.12-14.96,2.2-23.78l32.94-4.41c-.93,5.88-1.32,11.56-1.16,17.05.15,5.49,1.08,9.97,2.78,13.45,1.7,3.48,4.49,5.22,8.35,5.22,1.86,0,3.44-.47,4.76-1.39,1.31-.93,2.32-2.32,3.01-4.18s1.04-4.25,1.04-7.19c0-5.72-1.2-10.63-3.59-14.73-2.4-4.09-5.45-7.69-9.16-10.78-3.71-3.09-7.5-5.95-11.37-8.58-3.4-2.47-6.88-5.14-10.44-8-3.56-2.86-6.81-6.11-9.74-9.74-2.94-3.63-5.3-7.77-7.08-12.41-1.78-4.64-2.67-9.97-2.67-16.01,0-7.89,1.7-14.8,5.1-20.76,3.4-5.95,8.39-10.59,14.96-13.92,6.57-3.32,14.5-4.99,23.78-4.99,10.51,0,19.13,2.09,25.86,6.26,6.73,4.17,11.52,10.17,14.38,17.98,2.86,7.81,3.67,17.13,2.44,27.95l-32.24,4.17c.46-3.71.65-7.31.58-10.78-.08-3.48-.51-6.61-1.28-9.4-.77-2.78-1.97-4.99-3.59-6.61-1.63-1.63-3.68-2.44-6.15-2.44-1.7,0-3.21.46-4.52,1.39-1.32.93-2.32,2.2-3.02,3.83-.69,1.62-1.04,3.59-1.04,5.91,0,3.87.93,7.23,2.78,10.09,1.86,2.86,4.29,5.41,7.31,7.65,3.01,2.24,6.14,4.45,9.39,6.61,4.48,2.94,8.81,6.07,12.99,9.39,4.18,3.33,7.92,7.08,11.25,11.25,3.33,4.18,5.95,8.97,7.89,14.38,1.93,5.42,2.9,11.68,2.9,18.79,0,8.04-1.51,15.27-4.53,21.69-3.01,6.42-7.81,11.44-14.38,15.08-6.58,3.63-15.27,5.45-26.09,5.45"/><path class="b" d="M332.09,131.84c14.24,128.65,4.25,287.21-130.92,432.79-1.03,1.11.36,2.78,1.64,1.96l74.04-47.03c14.74-9.37,33.56-9.37,48.3,0l153,97.2c3.9,2.48,8.67-1.51,6.91-5.78-16.11-39.14-59.24-150.85-50.2-204.03,8.97-52.75,117.29-114.13,158.07-135.53,4.24-2.22,2.86-8.61-1.92-8.91,0,0-138.69,21.33-199.71-33.2-40.31-36.02-56.73-98.02-56.73-98.02-.23-.57-.72-.83-1.21-.83-.69,0-1.38.51-1.28,1.37M73.51,158.26c0,37.88,30.71,68.59,68.59,68.59s68.59-30.71,68.59-68.59-30.71-68.59-68.59-68.59-68.59,30.71-68.59,68.59M391.31,158.26c0,37.88,30.71,68.59,68.59,68.59s68.59-30.71,68.59-68.59-30.71-68.59-68.59-68.59-68.59,30.71-68.59,68.59M245.16,6.94c8.96,46.85,32.2,209.3-67.99,244.61-63.41,22.35-167.72,11.06-167.72,11.06-2.77.17-4.41,2.41-4.44,4.69v.13c.02,1.52.76,3.05,2.35,3.99,39.89,23.27,153.71,93.11,159.78,135.53,5.48,38.29-41.18,157.72-58.8,207.41-1.73,4.9,4.57,8.58,8.02,4.69C378.8,323.29,279.67,59.85,249.24,5.46c-.44-.79-1.17-1.14-1.89-1.14-1.25,0-2.49,1.05-2.19,2.61"/></svg>